<svg width="260" height="41" viewBox="0 0 260 41" fill="none" xmlns="http://www.w3.org/2000/svg">
<g clip-path="url(#clip0_333_1395)">
<path d="M5.85531 41.0303C6.3272 40.8207 5.99014 39.7229 6.14422 36.1498C6.34646 31.3093 9.25479 28.0057 9.9289 26.9278C11.7201 24.0734 16.5064 19.8816 18.8658 18.0252C21.7548 15.7297 22.1786 16.079 22.0245 15.4902C21.803 14.572 10.4682 16.069 10.1793 15.8195C10.2275 15.59 22.246 12.0968 25.2988 10.939C28.9486 9.55176 42.9895 2.28592 43.4903 2.3458C43.4903 2.44561 34.4283 8.14449 32.0592 9.8312C29.6902 11.5179 25.2025 12.8254 25.318 13.2445C25.501 13.9931 30.5376 13.3344 31.0962 13.9831C30.5184 14.1029 27.7737 15.9293 23.4883 19.0532C12.1728 26.1494 8.47474 34.533 9.5437 35.3913C9.34146 33.2555 12.9047 31.5588 21.5815 29.1834C26.9263 27.7163 28.9005 26.838 33.003 23.9537C35.7283 22.0274 38.3381 19.5323 42.5754 13.0948C49.0373 0.709015 48.941 0.120157 48.8736 0.050293C47.4098 0.409592 39.07 0.619166 34.7653 0.718971C30.4606 0.818776 23.8254 1.13817 21.283 1.41762C17.7849 1.73792 14.4125 2.92577 11.4505 4.88086C8.88117 6.5502 6.64501 8.71525 4.8634 11.2584C2.56177 14.5021 0.269774 18.9035 0.0482783 22.9256C-0.0359792 24.8224 0.103072 26.7227 0.462372 28.5846C1.77208 35.7905 5.04638 41.4096 5.87458 41.0303H5.85531Z" fill="#018137"/>
</g>
<path d="M242.371 24.4946L237.467 11.3625L232.441 24.4946H242.371ZM245.607 33.0434H229.081L226.017 41H214.665L231.828 0.00702044H242.689L260 41H248.5L245.436 33.0434H245.607ZM200.689 15.1734C200.731 14.3417 200.597 13.5106 200.296 12.7401C199.995 11.9696 199.535 11.2792 198.948 10.7188C197.477 9.56177 195.656 9.00371 193.824 9.14802H187.694V21.1472H193.848C195.672 21.2815 197.484 20.7443 198.972 19.628C199.559 19.0676 200.02 18.3772 200.321 17.6067C200.622 16.8362 200.756 16.005 200.713 15.1734H200.689ZM193.701 30.1081H187.694V41H176.66V0.00702044H194.51C197.669 -0.0752345 200.806 0.56616 203.705 1.88668C206.155 2.94034 208.254 4.73225 209.736 7.03655C211.193 9.43153 211.936 12.229 211.869 15.0703C211.903 17.7925 211.206 20.4696 209.859 22.7952C208.485 25.0411 206.528 26.8278 204.22 27.945L212.629 40.8197H200.811L193.726 30.2368L193.701 30.1081ZM151.847 21.1472C153.672 21.2815 155.484 20.7443 156.972 19.628C158.089 18.4422 158.715 16.8414 158.715 15.1734C158.715 13.5053 158.089 11.9047 156.972 10.7188C155.501 9.56177 153.68 9.00371 151.847 9.14802H145.693V21.1472H151.847ZM152.51 0.00702044C155.668 -0.0752345 158.806 0.56616 161.704 1.88668C164.155 2.94034 166.253 4.73225 167.736 7.03655C169.139 9.45717 169.881 12.2365 169.881 15.0703C169.881 17.9042 169.139 20.6836 167.736 23.1042C166.249 25.4349 164.155 27.2672 161.704 28.3828C158.793 29.6524 155.661 30.2665 152.51 30.1853H145.693V40.8971H134.66V0.00702044H152.51ZM114.358 0.00702044H125.416V41H114.383V0.00702044H114.358ZM110.681 0.00702044L93.9588 41H82.9989L66.3262 0.00702044H78.2668L88.8589 26.7091L99.6716 0.00702044H110.681Z" fill="#E6E6E6"/>
<defs>
<clipPath id="clip0_333_1395">
<rect width="51.2925" height="41" fill="white"/>
</clipPath>
</defs>
</svg>
